# xmcd
# 
# Track frame offsets:
#     150
#     22762
#     41066
#     56578
#     74901
#     90283
# 
# Disc length: 1388
# 
# Revision: 0
# Processed by: cddbd v1.5.2PL0 Copyright (c) Steve Scherf et al.
# Submitted via: fre:ac v1.0.31
# 
DISCID=48056a06
DTITLE=Haun's Mill Massacre - Haun's Mill Massacre
DYEAR=2007
DGENRE=Rock
TTITLE0=Mt. Pleasant
TTITLE1=Nobody Followed
TTITLE2=Set Me Free
TTITLE3=Forsaken
TTITLE4=Fitzcarraldo
TTITLE5=The Plague
EXTD=
EXTT0=
EXTT1=
EXTT2=
EXTT3=
EXTT4=
EXTT5=
PLAYORDER=
